<?xml version="1.0" standalone="no"?>
<!DOCTYPE svg PUBLIC "-//W3C//DTD SVG 20010904//EN"
 "http://www.w3.org/TR/2001/REC-SVG-20010904/DTD/svg10.dtd">
<svg version="1.0" xmlns="http://www.w3.org/2000/svg"
 width="400.000000pt" height="400.000000pt" viewBox="0 0 400.000000 400.000000"
 preserveAspectRatio="xMidYMid meet">

<g transform="translate(0.000000,400.000000) scale(0.100000,-0.100000)"
fill="#113654" stroke="none">
<path d="M250 2000 l0 -1750 1750 0 1750 0 0 1750 0 1750 -1750 0 -1750 0 0
-1750z m1301 968 c8 -18 61 -121 117 -229 56 -108 102 -203 102 -212 0 -10 4
-17 8 -17 15 0 150 -298 187 -410 10 -30 24 -64 31 -74 15 -22 13 -27 98 186
43 107 240 516 255 528 3 3 33 57 65 120 32 63 63 121 69 128 7 8 46 12 133
12 l123 0 -65 -127 c-110 -214 -304 -586 -318 -613 -8 -14 -38 -72 -68 -130
-30 -58 -82 -154 -114 -215 l-59 -110 -3 -402 -3 -403 -114 0 -113 0 -4 413
-4 412 -48 90 c-27 50 -75 142 -108 205 -33 63 -66 126 -74 140 -7 14 -66 126
-130 250 -64 124 -142 275 -174 335 -32 61 -61 120 -64 133 l-7 22 133 0 134
0 15 -32z"/>
</g>
</svg>
